<?xml version="1.0" encoding="UTF-8"?>
<svg fill="#000000" viewBox="0 0 24 24" xmlns="http://www.w3.org/2000/svg">
<path d="m13.262 14.867 2.4805 2.4805c-0.37891 0.72266-0.41797 1.4414-0.019532 1.8398l4.5273 4.5273c0.57031 0.57031 1.8125 0.25781 2.7656-0.69922 0.95703-0.95703 1.2695-2.1953 0.69922-2.7656l-4.5234-4.5273c-0.40234-0.39844-1.1211-0.35938-1.8438 0.015625l-2.4805-2.4766zm-4.7617-14.867c-4.6953 0-8.5 3.8047-8.5 8.5 0 4.6953 3.8047 8.5 8.5 8.5 4.6953 0 8.5-3.8047 8.5-8.5 0-4.6953-3.8047-8.5-8.5-8.5zm0 15c-3.5898 0-6.5-2.9102-6.5-6.5s2.9102-6.5 6.5-6.5 6.5 2.9102 6.5 6.5-2.9102 6.5-6.5 6.5z"/>
</svg>
